<mxfile host="app.diagrams.net" modified="2023-09-20T05:11:29.994Z" agent="Mozilla/5.0 (Windows NT 10.0; Win64; x64) AppleWebKit/537.36 (KHTML, like Gecko) Chrome/113.0.0.0 Safari/537.36 OPR/99.0.0.0" etag="RgF060vDXh5lY1-0xRkh" version="21.7.5" type="github">
  <diagram name="Сторінка-1" id="Gw1bhCmw476oVBOJKpMm">
    <mxGraphModel dx="987" dy="1117" grid="1" gridSize="10" guides="1" tooltips="1" connect="1" arrows="1" fold="1" page="1" pageScale="1" pageWidth="827" pageHeight="1169" math="0" shadow="0">
      <root>
        <mxCell id="0" />
        <mxCell id="1" parent="0" />
        <mxCell id="zaFcXTwMFuQ1EMOfRSc--1" value="frame" style="shape=umlFrame;whiteSpace=wrap;html=1;" parent="1" vertex="1">
          <mxGeometry x="210" y="150" width="410" height="590" as="geometry" />
        </mxCell>
        <mxCell id="zaFcXTwMFuQ1EMOfRSc--4" value="Співробітник агенції" style="shape=umlActor;verticalLabelPosition=bottom;verticalAlign=top;html=1;" parent="1" vertex="1">
          <mxGeometry x="130" y="540" width="30" height="60" as="geometry" />
        </mxCell>
        <mxCell id="zaFcXTwMFuQ1EMOfRSc--5" value="Аналіз безпеки праці" style="ellipse;whiteSpace=wrap;html=1;" parent="1" vertex="1">
          <mxGeometry x="260" y="180" width="140" height="70" as="geometry" />
        </mxCell>
        <mxCell id="zaFcXTwMFuQ1EMOfRSc--6" value=" Створення безпечних умов" style="ellipse;whiteSpace=wrap;html=1;" parent="1" vertex="1">
          <mxGeometry x="390" y="250" width="140" height="70" as="geometry" />
        </mxCell>
        <mxCell id="zaFcXTwMFuQ1EMOfRSc--7" value="Митець-безпековик" style="shape=umlActor;verticalLabelPosition=bottom;verticalAlign=top;html=1;" parent="1" vertex="1">
          <mxGeometry x="640" y="60" width="30" height="60" as="geometry" />
        </mxCell>
        <mxCell id="zaFcXTwMFuQ1EMOfRSc--9" value="Інструктор" style="shape=umlActor;verticalLabelPosition=bottom;verticalAlign=top;html=1;" parent="1" vertex="1">
          <mxGeometry x="130" y="410" width="30" height="60" as="geometry" />
        </mxCell>
        <mxCell id="zaFcXTwMFuQ1EMOfRSc--11" value="Надання рекомендацій" style="ellipse;whiteSpace=wrap;html=1;" parent="1" vertex="1">
          <mxGeometry x="414" y="350" width="140" height="70" as="geometry" />
        </mxCell>
        <mxCell id="zaFcXTwMFuQ1EMOfRSc--12" value="Формування допоміжного пакету" style="ellipse;whiteSpace=wrap;html=1;" parent="1" vertex="1">
          <mxGeometry x="220" y="460" width="140" height="70" as="geometry" />
        </mxCell>
        <mxCell id="zaFcXTwMFuQ1EMOfRSc--13" value="Надання технічних запитань та отримання відповідей" style="ellipse;whiteSpace=wrap;html=1;" parent="1" vertex="1">
          <mxGeometry x="390" y="570" width="140" height="70" as="geometry" />
        </mxCell>
        <mxCell id="zaFcXTwMFuQ1EMOfRSc--14" value="Пошук художніх відповідей та ідей" style="ellipse;whiteSpace=wrap;html=1;" parent="1" vertex="1">
          <mxGeometry x="310" y="660" width="140" height="70" as="geometry" />
        </mxCell>
        <mxCell id="zaFcXTwMFuQ1EMOfRSc--18" value="Митець-друг" style="shape=umlActor;verticalLabelPosition=bottom;verticalAlign=top;html=1;" parent="1" vertex="1">
          <mxGeometry x="650" y="510" width="30" height="60" as="geometry" />
        </mxCell>
        <mxCell id="zaFcXTwMFuQ1EMOfRSc--21" value="" style="endArrow=classic;html=1;rounded=0;" parent="1" source="zaFcXTwMFuQ1EMOfRSc--7" target="zaFcXTwMFuQ1EMOfRSc--5" edge="1">
          <mxGeometry width="50" height="50" relative="1" as="geometry">
            <mxPoint x="390" y="480" as="sourcePoint" />
            <mxPoint x="440" y="430" as="targetPoint" />
          </mxGeometry>
        </mxCell>
        <mxCell id="zaFcXTwMFuQ1EMOfRSc--22" value="" style="endArrow=classic;html=1;rounded=0;entryX=0;entryY=0.5;entryDx=0;entryDy=0;" parent="1" source="zaFcXTwMFuQ1EMOfRSc--9" target="zaFcXTwMFuQ1EMOfRSc--5" edge="1">
          <mxGeometry width="50" height="50" relative="1" as="geometry">
            <mxPoint x="390" y="480" as="sourcePoint" />
            <mxPoint x="440" y="430" as="targetPoint" />
          </mxGeometry>
        </mxCell>
        <mxCell id="zaFcXTwMFuQ1EMOfRSc--23" value="" style="endArrow=classic;html=1;rounded=0;entryX=0;entryY=0.5;entryDx=0;entryDy=0;" parent="1" source="zaFcXTwMFuQ1EMOfRSc--9" target="zaFcXTwMFuQ1EMOfRSc--6" edge="1">
          <mxGeometry width="50" height="50" relative="1" as="geometry">
            <mxPoint x="390" y="480" as="sourcePoint" />
            <mxPoint x="440" y="430" as="targetPoint" />
          </mxGeometry>
        </mxCell>
        <mxCell id="zaFcXTwMFuQ1EMOfRSc--24" value="" style="endArrow=classic;html=1;rounded=0;entryX=0;entryY=0.5;entryDx=0;entryDy=0;" parent="1" source="zaFcXTwMFuQ1EMOfRSc--9" target="zaFcXTwMFuQ1EMOfRSc--11" edge="1">
          <mxGeometry width="50" height="50" relative="1" as="geometry">
            <mxPoint x="390" y="480" as="sourcePoint" />
            <mxPoint x="440" y="430" as="targetPoint" />
          </mxGeometry>
        </mxCell>
        <mxCell id="zaFcXTwMFuQ1EMOfRSc--25" value="" style="endArrow=classic;html=1;rounded=0;entryX=1;entryY=0.5;entryDx=0;entryDy=0;" parent="1" source="zaFcXTwMFuQ1EMOfRSc--18" target="zaFcXTwMFuQ1EMOfRSc--14" edge="1">
          <mxGeometry width="50" height="50" relative="1" as="geometry">
            <mxPoint x="610" y="550" as="sourcePoint" />
            <mxPoint x="440" y="430" as="targetPoint" />
          </mxGeometry>
        </mxCell>
        <mxCell id="zaFcXTwMFuQ1EMOfRSc--27" value="" style="endArrow=classic;html=1;rounded=0;entryX=1;entryY=0.5;entryDx=0;entryDy=0;" parent="1" target="zaFcXTwMFuQ1EMOfRSc--13" edge="1">
          <mxGeometry width="50" height="50" relative="1" as="geometry">
            <mxPoint x="650" y="550" as="sourcePoint" />
            <mxPoint x="440" y="430" as="targetPoint" />
          </mxGeometry>
        </mxCell>
        <mxCell id="zaFcXTwMFuQ1EMOfRSc--28" value="" style="endArrow=classic;html=1;rounded=0;entryX=0;entryY=0.5;entryDx=0;entryDy=0;" parent="1" source="zaFcXTwMFuQ1EMOfRSc--4" target="zaFcXTwMFuQ1EMOfRSc--13" edge="1">
          <mxGeometry width="50" height="50" relative="1" as="geometry">
            <mxPoint x="110" y="260" as="sourcePoint" />
            <mxPoint x="440" y="430" as="targetPoint" />
          </mxGeometry>
        </mxCell>
        <mxCell id="zaFcXTwMFuQ1EMOfRSc--29" value="" style="endArrow=classic;html=1;rounded=0;entryX=0;entryY=0.5;entryDx=0;entryDy=0;" parent="1" source="zaFcXTwMFuQ1EMOfRSc--9" target="zaFcXTwMFuQ1EMOfRSc--12" edge="1">
          <mxGeometry width="50" height="50" relative="1" as="geometry">
            <mxPoint x="80" y="320" as="sourcePoint" />
            <mxPoint x="410" y="430" as="targetPoint" />
          </mxGeometry>
        </mxCell>
        <mxCell id="zaFcXTwMFuQ1EMOfRSc--30" value="&amp;lt;&amp;lt;include&amp;gt;&amp;gt;" style="endArrow=classic;dashed=1;html=1;rounded=0;exitX=0.5;exitY=1;exitDx=0;exitDy=0;entryX=0.5;entryY=0;entryDx=0;entryDy=0;startArrow=none;startFill=0;endFill=1;edgeStyle=orthogonalEdgeStyle;curved=1;" parent="1" source="zaFcXTwMFuQ1EMOfRSc--5" target="zaFcXTwMFuQ1EMOfRSc--14" edge="1">
          <mxGeometry width="50" height="50" relative="1" as="geometry">
            <mxPoint x="300" y="290" as="sourcePoint" />
            <mxPoint x="350" y="240" as="targetPoint" />
            <Array as="points">
              <mxPoint x="330" y="450" />
              <mxPoint x="380" y="450" />
            </Array>
          </mxGeometry>
        </mxCell>
        <mxCell id="zaFcXTwMFuQ1EMOfRSc--31" value="&amp;lt;&amp;lt;include&amp;gt;&amp;gt;" style="endArrow=classic;dashed=1;html=1;rounded=0;exitX=0.5;exitY=1;exitDx=0;exitDy=0;entryX=0.5;entryY=0;entryDx=0;entryDy=0;startArrow=none;startFill=0;endFill=1;edgeStyle=orthogonalEdgeStyle;curved=1;" parent="1" source="zaFcXTwMFuQ1EMOfRSc--5" target="zaFcXTwMFuQ1EMOfRSc--13" edge="1">
          <mxGeometry x="-0.1111" width="50" height="50" relative="1" as="geometry">
            <mxPoint x="340" y="260" as="sourcePoint" />
            <mxPoint x="390" y="670" as="targetPoint" />
            <Array as="points">
              <mxPoint x="380" y="250" />
              <mxPoint x="380" y="460" />
              <mxPoint x="460" y="460" />
            </Array>
            <mxPoint as="offset" />
          </mxGeometry>
        </mxCell>
        <mxCell id="zaFcXTwMFuQ1EMOfRSc--32" value="&amp;lt;&amp;lt;include&amp;gt;&amp;gt;" style="endArrow=classic;dashed=1;html=1;rounded=0;exitX=0.5;exitY=1;exitDx=0;exitDy=0;entryX=0.5;entryY=0;entryDx=0;entryDy=0;startArrow=none;startFill=0;endFill=1;edgeStyle=orthogonalEdgeStyle;curved=1;" parent="1" source="zaFcXTwMFuQ1EMOfRSc--6" target="zaFcXTwMFuQ1EMOfRSc--12" edge="1">
          <mxGeometry x="0.0968" y="10" width="50" height="50" relative="1" as="geometry">
            <mxPoint x="340" y="260" as="sourcePoint" />
            <mxPoint x="470" y="580" as="targetPoint" />
            <Array as="points">
              <mxPoint x="460" y="340" />
              <mxPoint x="290" y="340" />
            </Array>
            <mxPoint as="offset" />
          </mxGeometry>
        </mxCell>
        <mxCell id="zaFcXTwMFuQ1EMOfRSc--33" value="&amp;lt;&amp;lt;extend&amp;gt;&amp;gt;" style="endArrow=classic;dashed=1;html=1;rounded=0;exitX=0.5;exitY=1;exitDx=0;exitDy=0;entryX=0.5;entryY=0;entryDx=0;entryDy=0;startArrow=none;startFill=0;endFill=1;edgeStyle=orthogonalEdgeStyle;curved=1;" parent="1" source="zaFcXTwMFuQ1EMOfRSc--11" target="zaFcXTwMFuQ1EMOfRSc--13" edge="1">
          <mxGeometry x="-0.3592" y="10" width="50" height="50" relative="1" as="geometry">
            <mxPoint x="490" y="10" as="sourcePoint" />
            <mxPoint x="320" y="150" as="targetPoint" />
            <Array as="points">
              <mxPoint x="490" y="420" />
              <mxPoint x="490" y="570" />
            </Array>
            <mxPoint as="offset" />
          </mxGeometry>
        </mxCell>
        <mxCell id="EzY_0bkgKiHBauUYZ8IB-1" value="Користувач" style="shape=umlActor;verticalLabelPosition=bottom;verticalAlign=top;html=1;" vertex="1" parent="1">
          <mxGeometry x="60" y="730" width="30" height="60" as="geometry" />
        </mxCell>
        <mxCell id="EzY_0bkgKiHBauUYZ8IB-3" value="" style="endArrow=block;html=1;rounded=0;endFill=0;" edge="1" parent="1" source="zaFcXTwMFuQ1EMOfRSc--9" target="zaFcXTwMFuQ1EMOfRSc--4">
          <mxGeometry width="50" height="50" relative="1" as="geometry">
            <mxPoint x="390" y="600" as="sourcePoint" />
            <mxPoint x="440" y="550" as="targetPoint" />
          </mxGeometry>
        </mxCell>
        <mxCell id="EzY_0bkgKiHBauUYZ8IB-5" value="" style="endArrow=block;html=1;rounded=0;endFill=0;" edge="1" parent="1" source="zaFcXTwMFuQ1EMOfRSc--4" target="EzY_0bkgKiHBauUYZ8IB-1">
          <mxGeometry width="50" height="50" relative="1" as="geometry">
            <mxPoint x="120" y="462" as="sourcePoint" />
            <mxPoint x="50" y="518" as="targetPoint" />
          </mxGeometry>
        </mxCell>
        <mxCell id="EzY_0bkgKiHBauUYZ8IB-6" value="" style="endArrow=block;html=1;rounded=0;endFill=0;" edge="1" parent="1" source="zaFcXTwMFuQ1EMOfRSc--18" target="EzY_0bkgKiHBauUYZ8IB-1">
          <mxGeometry width="50" height="50" relative="1" as="geometry">
            <mxPoint x="500" y="1040" as="sourcePoint" />
            <mxPoint x="130" y="760" as="targetPoint" />
            <Array as="points">
              <mxPoint x="670" y="760" />
            </Array>
          </mxGeometry>
        </mxCell>
        <mxCell id="EzY_0bkgKiHBauUYZ8IB-7" value="" style="endArrow=block;html=1;rounded=0;endFill=0;entryX=0.5;entryY=0;entryDx=0;entryDy=0;entryPerimeter=0;" edge="1" parent="1" source="zaFcXTwMFuQ1EMOfRSc--7" target="EzY_0bkgKiHBauUYZ8IB-1">
          <mxGeometry width="50" height="50" relative="1" as="geometry">
            <mxPoint x="540" y="80" as="sourcePoint" />
            <mxPoint x="100" y="770" as="targetPoint" />
            <Array as="points">
              <mxPoint x="70" y="90" />
            </Array>
          </mxGeometry>
        </mxCell>
      </root>
    </mxGraphModel>
  </diagram>
</mxfile>
